<?xml version="1.0" encoding="utf-8"?>
<!-- Svg Vector Icons : http://www.onlinewebfonts.com/icon -->
<!DOCTYPE svg PUBLIC "-//W3C//DTD SVG 1.1//EN" "http://www.w3.org/Graphics/SVG/1.1/DTD/svg11.dtd">
<svg version="1.1" xmlns="http://www.w3.org/2000/svg" xmlns:xlink="http://www.w3.org/1999/xlink" x="0px" y="0px" viewBox="0 0 256 256" enable-background="new 0 0 256 256" xml:space="preserve">
<metadata> Svg Vector Icons : http://www.onlinewebfonts.com/icon </metadata>
<g><g><path fill="#000000" d="M243.9,15.2c3.4,2,2.6,9.9-1.9,17.7l-44.8,77.5c-0.5,0.8-1,1.5-1.5,2.3L176,89.4l41-71C221.5,10.7,227.9,6,231.4,8L243.9,15.2z M202.7,147.8c14.1,24.3,10.2,50.1-9.1,61.3l-60.2,34.7c-5.3,3.1-11.1,4.6-17.2,4.6c-15.6,0-30.3-10-40.4-27.4l-57.3-99.2c-6.9-12-9.7-24.2-8.1-35.4c1.6-11.3,7.8-20.5,17.2-25.9l60.1-34.7c5.3-3.1,11.1-4.6,17.3-4.6c15.6,0,30.3,10,40.4,27.4L170,91.2l-16.3,28.3l25,14.4l10-10.5L202.7,147.8z M148.3,157.8l26.8-17.1l-25-14.1L148.3,157.8z M141.8,92.7l-8.1-14.1l-84.3,48.7l8.1,14.1L141.8,92.7z M139.4,169.3l-8.1-14.1l-49.3,28.5l8.1,14.1L139.4,169.3z M137.9,132.6l-8.1-14.1l-64.1,37l8.1,14.1L137.9,132.6z M127.5,63.4l-8.1-14.1L33.1,99.1l8.1,14.1L127.5,63.4z"/></g></g>
</svg>